<svg width="90" height="29" viewBox="0 0 90 29" fill="none" xmlns="http://www.w3.org/2000/svg">
<g id="asan-logo-full 1" clip-path="url(#clip0_1_3139)">
<g id="Group" opacity="0.8">
<path id="Vector" opacity="0.8" fill-rule="evenodd" clip-rule="evenodd" d="M41.487 0.5H3.794C2.78942 0.499732 1.82576 0.897998 1.11447 1.60741C0.403191 2.31682 0.00238363 3.27942 0 4.284L0 24.596C0.00211914 25.6008 0.40281 26.5636 1.11412 27.2732C1.82543 27.9829 2.78925 28.3813 3.794 28.381H33.667C35.352 28.381 36.908 27.676 38.304 26.289C38.589 26.001 39.022 25.572 39.517 25.082C40.962 23.654 42.944 21.698 43.592 20.994C44.6733 19.8497 45.2761 18.3353 45.277 16.761V4.284C45.2754 3.27987 44.8754 2.31741 44.1648 1.60794C43.4542 0.898478 42.4911 0.499999 41.487 0.5ZM30.175 7.525C30.833 7.538 31.475 7.73 32.033 8.081C32.526 8.369 32.92 8.8 33.163 9.316C33.392 9.812 33.493 10.356 33.461 10.901C33.4094 11.6708 33.1498 12.4122 32.7098 13.046C32.2699 13.6799 31.6661 14.1824 30.963 14.5C29.3659 15.2252 27.5824 15.4339 25.861 15.097C24.8148 14.8778 23.8287 14.4339 22.971 13.796C21.9322 13.0056 21.0667 12.0104 20.428 10.872C19.5766 9.28363 18.2757 7.98164 16.688 7.129C14.152 5.853 10.474 5.717 8.418 8.447C6.304 11.264 6.135 14.5 7.96 17.357C10.197 20.849 15.634 23.699 22.74 22.192C30.674 20.512 33.874 15.258 35.092 12.276L35.137 12.161C35.5433 11.025 36.0403 9.92344 36.623 8.867C36.8142 8.52121 37.0875 8.22772 37.4189 8.01236C37.7502 7.79701 38.1293 7.66639 38.523 7.632C38.908 7.57018 39.3026 7.6185 39.6612 7.77138C40.0199 7.92426 40.328 8.17547 40.55 8.496C40.932 9.036 40.98 9.743 40.673 10.329C40.505 10.636 40.228 10.869 39.897 10.984C38.584 11.395 38.485 10.23 38.485 10.23C39.067 10.345 39.46 10.164 39.588 9.818C39.644 9.59998 39.6143 9.36879 39.505 9.172C39.4106 9.04763 39.283 8.95251 39.1368 8.89765C38.9906 8.84279 38.8319 8.83043 38.679 8.862C37.854 8.958 37.573 9.468 36.301 12.635L36.256 12.75C35.3281 15.0394 33.9206 17.1033 32.128 18.803C29.5878 21.1546 26.4424 22.7517 23.045 23.415C19.815 24.149 16.441 23.965 13.31 22.884C10.7026 22.0083 8.45556 20.2996 6.915 18.021C5.93826 16.5331 5.43453 14.7845 5.47 13.005C5.54918 11.0774 6.23553 9.22417 7.431 7.71C7.97793 6.98604 8.66612 6.38063 9.45389 5.93045C10.2417 5.48028 11.1126 5.19469 12.014 5.091C13.8149 4.88581 15.6366 5.20894 17.257 6.021C18.2516 6.52273 19.1457 7.20265 19.895 8.027C20.514 8.705 21.055 9.449 21.509 10.247C23.945 14.447 27.859 14.554 30.459 13.372C30.9521 13.1449 31.3759 12.7905 31.6866 12.3453C31.9973 11.9001 32.1839 11.3802 32.227 10.839C32.2616 10.5068 32.2026 10.1715 32.0567 9.87109C31.9107 9.57067 31.6836 9.31708 31.401 9.139C30.307 8.492 29.469 8.772 29.051 9.246C28.8409 9.46908 28.7179 9.76025 28.7045 10.0664C28.6911 10.3726 28.7881 10.6734 28.978 10.914C29.155 11.115 29.522 11.062 29.679 11.016C30.051 10.914 30.319 10.111 30.319 10.111C30.519 10.221 30.683 10.386 30.794 10.584C30.8684 10.7204 30.9116 10.8715 30.9207 11.0265C30.9297 11.1816 30.9043 11.3367 30.8463 11.4808C30.7882 11.6249 30.699 11.7543 30.585 11.8598C30.4711 11.9653 30.3351 12.0443 30.187 12.091C29.312 12.478 28.433 12.355 27.929 11.716C27.5607 11.2353 27.3773 10.6383 27.4122 10.0337C27.4471 9.42914 27.6979 8.85719 28.119 8.422C28.3784 8.13509 28.6959 7.90671 29.0504 7.75204C29.4049 7.59738 29.7883 7.51998 30.175 7.525ZM10.267 14.652C10.9165 16.0263 11.9637 17.1739 13.273 17.946C14.879 18.852 16.518 19.264 18.937 19.367C19.429 19.392 19.923 19.392 20.415 19.367C19.161 18.65 18.0247 17.7444 17.046 16.682C16.3046 15.8526 15.6489 14.9503 15.089 13.989L14.99 13.816C14.755 13.405 14.355 12.701 13.958 12.548C13.8398 12.4927 13.711 12.464 13.5805 12.464C13.45 12.464 13.3212 12.4927 13.203 12.548C13.1221 12.5903 13.0507 12.6487 12.9931 12.7195C12.9355 12.7903 12.8929 12.8722 12.868 12.96C12.874 13.209 12.926 13.455 13.021 13.685C13.468 14.499 14.007 15.261 14.627 15.954C15.04 16.406 16.126 17.601 16.126 17.601C15.4613 17.4998 14.827 17.2536 14.268 16.88C13.2335 16.2375 12.4086 15.3077 11.894 14.204C11.6863 13.7436 11.6035 13.2366 11.654 12.734C11.7112 12.4658 11.8262 12.2134 11.991 11.9942C12.1557 11.7751 12.3663 11.5945 12.608 11.465C12.8816 11.3185 13.1843 11.2348 13.4943 11.2199C13.8043 11.2051 14.1137 11.2594 14.4 11.379C15.226 11.692 15.725 12.594 16.051 13.191C16.084 13.244 16.113 13.301 16.146 13.351C16.662 14.233 17.266 15.061 17.95 15.821C19.2891 17.2643 20.9339 18.3901 22.764 19.116L24.961 19.853L22.706 20.314C21.4437 20.5493 20.1592 20.6445 18.876 20.598C16.254 20.478 14.45 20.022 12.662 19.029C11.1302 18.124 9.90371 16.7819 9.14 15.175C8.81713 14.4262 8.66905 13.6136 8.707 12.799C8.72049 11.8832 8.97838 10.9877 9.454 10.205C10.011 9.304 11.147 8.221 13.36 8.146C14.223 8.17 15.07 8.386 15.837 8.781C17.0999 9.47542 18.1318 10.5246 18.805 11.799C19.613 13.2775 20.7964 14.5168 22.236 15.3922C23.6757 16.2675 25.3206 16.7479 27.005 16.785C28.025 16.785 29.045 16.71 30.055 16.559C29.1969 17.3463 28.1174 17.8508 26.963 18.004C25.1078 17.952 23.2963 17.429 21.699 16.484C20.062 15.4926 18.7038 14.1014 17.752 12.441C17.1982 11.3755 16.3462 10.4943 15.3 9.905C14.7033 9.59447 14.0443 9.42254 13.372 9.402C12.042 9.439 11.072 9.929 10.482 10.86C10.1632 11.4352 9.97833 12.0749 9.94111 12.7314C9.90388 13.388 10.0153 14.0445 10.267 14.652ZM22.294 1.846C22.733 2.1 23.154 2.382 23.557 2.691C23.889 2.929 24.181 3.22 24.42 3.551C24.5241 3.69499 24.5964 3.85949 24.6321 4.03356C24.6678 4.20764 24.6661 4.38732 24.627 4.56068C24.588 4.73403 24.5125 4.89709 24.4056 5.03904C24.2987 5.18099 24.1628 5.29858 24.007 5.384C23.4985 4.74692 22.9469 4.1455 22.356 3.584C21.6172 2.88936 20.7827 2.30409 19.878 1.846H22.294ZM6.956 1.846C6.11274 2.17483 5.36094 2.70165 4.764 3.382C4.74164 2.84747 4.63569 2.31974 4.45 1.818L6.956 1.846ZM1.412 4.284C1.40848 3.85447 1.51703 3.43144 1.72695 3.05667C1.93686 2.68191 2.24089 2.36837 2.609 2.147C2.882 2.926 2.947 3.761 2.799 4.572C2.61993 5.49544 2.34304 6.3972 1.973 7.262C1.771 7.78 1.561 8.286 1.42 8.785L1.412 4.285V4.284ZM3.798 27.034C3.15093 27.0337 2.53035 26.777 2.07224 26.32C1.61413 25.863 1.35585 25.2431 1.354 24.596V23.361C2.18 24.716 3.27 25.782 5.004 27.03L3.798 27.034ZM8.009 27.034C7.29159 26.6016 6.60221 26.1243 5.945 25.605C4.06691 24.1421 2.50737 22.311 1.362 20.224V17.069C2.89 21.932 6.672 25.28 10.672 27.034H8.009ZM30.414 27.034C29.8124 26.6514 29.1645 26.347 28.486 26.128C26.922 25.741 25.489 26.058 23.826 26.388C21.6705 26.8642 19.4601 27.0442 17.256 26.923C15.3589 26.7762 13.4945 26.3458 11.725 25.646C10.04 24.9858 8.49795 24.0073 7.183 22.764C5.98926 21.6511 4.97044 20.3642 4.161 18.947C2.923 16.748 2.321 14.595 2.407 12.544C2.46 11.361 2.701 10.194 3.121 9.085C3.57418 7.9255 4.19148 6.83706 4.954 5.853C6.56443 3.74636 8.93568 2.35398 11.56 1.974C12.023 1.904 12.49 1.862 12.96 1.846H13.785C15.475 1.888 17.136 2.301 18.648 3.057C19.7979 3.65451 20.8391 4.44114 21.728 5.384C22.673 6.382 23.498 7.487 24.184 8.678C24.238 8.776 24.296 8.868 24.35 8.958C24.442 8.448 24.614 7.957 24.857 7.5C25.031 7.158 25.233 6.837 25.427 6.52C25.943 5.696 26.455 5.021 26.381 4.165C26.3257 3.66803 26.141 3.19427 25.8453 2.79102C25.5496 2.38778 25.1533 2.06916 24.696 1.867H26.7C27.114 2.1492 27.4394 2.54321 27.6382 3.00316C27.837 3.4631 27.9011 3.97005 27.823 4.465C27.699 5.458 26.968 6.38 26.481 7.166C26.291 7.476 26.109 7.768 25.957 8.068C25.5797 8.77747 25.4188 9.58199 25.494 10.382C25.5633 10.9488 25.6879 11.5075 25.866 12.05C25.412 11.8924 24.9917 11.6509 24.627 11.338C24.0306 10.7395 23.5231 10.0586 23.12 9.316C21.688 6.866 19.995 5.132 18.084 4.152C16.6173 3.43169 15.003 3.06263 13.369 3.074C12.826 3.074 12.284 3.114 11.746 3.193C9.45008 3.53106 7.3765 4.75117 5.966 6.594C5.2808 7.49029 4.72533 8.47867 4.316 9.53C3.94063 10.5162 3.72459 11.5559 3.676 12.61C3.596 14.426 4.134 16.357 5.265 18.35C6.81555 21.1211 9.25639 23.2875 12.192 24.498C15.825 25.906 19.475 26.066 23.822 25.108C25.849 24.662 27.629 24.489 29.49 25.108C30.697 25.606 31.839 26.248 32.892 27.018L30.415 27.034H30.414ZM34.984 26.812C33.296 25.312 31.521 24.226 30.076 23.826L28.577 23.415C29.3752 23.0874 30.1431 22.6906 30.872 22.229C30.872 22.229 32.111 22.349 32.742 22.332C32.3981 22.597 32.037 22.8389 31.661 23.056C33.3475 23.863 34.901 24.9225 36.268 26.198C35.878 26.475 35.445 26.682 34.984 26.812ZM39.774 22.921C39.534 22.8011 39.3034 22.6634 39.084 22.509C38.4725 22.791 37.8334 23.0088 37.177 23.159C37.62 23.494 38.091 23.792 38.584 24.049L37.689 24.967C36.7907 24.4522 35.9505 23.842 35.183 23.147C34.8847 22.8694 34.5613 22.62 34.217 22.402C34.217 22.402 34.914 22.324 35.649 22.188C36.7153 21.9739 37.7521 21.6324 38.737 21.171L39.067 20.998L39.48 21.315C39.85 21.607 40.27 21.83 40.719 21.974C40.401 22.324 40.046 22.653 39.773 22.921H39.774ZM43.811 17.794C43.6419 18.6122 43.247 19.3668 42.671 19.972H42.647L42.498 20.158L41.908 20.763C41.3855 20.6739 40.8843 20.488 40.43 20.215C40.883 19.871 41.292 19.4726 41.648 19.029L42.028 18.404C42.028 18.404 43.266 18.194 43.852 17.58C43.861 17.555 43.799 17.794 43.811 17.794ZM43.927 4.832C43.0838 3.99618 42.0014 3.44332 40.83 3.25C39.3568 2.9794 37.8457 2.9889 36.376 3.278C35.806 3.384 35.252 3.558 34.724 3.798L34.411 3.954L34.105 3.794C33.0871 3.18896 31.8885 2.96234 30.72 3.154C30.817 3.636 30.846 4.128 30.806 4.617C31.7819 4.71733 32.731 4.9963 33.606 5.44C33.957 5.649 34.294 5.881 34.613 6.136C35.1904 5.57808 35.9009 5.17705 36.677 4.971C37.5673 4.69577 38.5046 4.60592 39.431 4.707C40.4656 4.79909 41.4599 5.1521 42.321 5.733C42.8035 6.0864 43.1982 6.54615 43.4744 7.07662C43.7507 7.6071 43.9011 8.19405 43.914 8.792C43.9947 9.72648 43.8357 10.6661 43.452 11.522C42.754 12.996 41.111 14.022 39.117 14.256C38.625 15.5043 37.9179 16.6568 37.028 17.661C36.928 17.793 36.475 18.374 35.856 19.049C36.029 18.999 36.211 18.95 36.396 18.884C37.9597 18.4212 39.2958 17.3942 40.145 16.002L40.294 15.742L40.595 15.702C41.8649 15.4703 43.0374 14.8668 43.964 13.968V15.586C43.714 15.766 43.454 15.929 43.184 16.076C42.518 16.44 41.804 16.706 41.061 16.866C40.0342 18.3941 38.512 19.5214 36.751 20.058C35.931 20.328 35.079 20.492 34.217 20.548L32.619 20.651C33.496 19.971 34.282 19.181 34.956 18.3C35.545 17.552 36.096 16.776 36.606 15.973C37.086 15.25 37.492 14.48 37.816 13.675L38.229 12.617C38.485 12.701 38.746 12.768 39.009 12.819C39.6794 12.8805 40.3527 12.7391 40.9417 12.4131C41.5307 12.0871 42.0081 11.5917 42.312 10.991C42.6062 10.3237 42.7243 9.59201 42.655 8.866C42.548 7.153 41.475 6.218 39.261 5.926C38.051 5.766 35.921 6.181 35.236 7.355L34.823 8.084L34.258 7.462C33.889 7.08892 33.4724 6.76614 33.019 6.502C32.1834 6.08737 31.2708 5.85071 30.339 5.807C29.9717 5.80353 29.6047 5.83096 29.242 5.889L29.452 5.09C29.5943 4.34203 29.5126 3.56868 29.217 2.867L28.899 2.249C29.6464 1.97043 30.4384 1.83081 31.236 1.837C32.3562 1.80744 33.4663 2.05475 34.468 2.557C35.5469 2.14402 36.6842 1.90373 37.838 1.845H39.406C39.959 1.881 40.511 1.945 41.057 2.039C41.933 2.194 42.773 2.509 43.534 2.969C43.786 3.362 43.919 3.818 43.918 4.283L43.927 4.831V4.832Z" fill="#718096"/>
<path id="Vector_2" opacity="0.8" fill-rule="evenodd" clip-rule="evenodd" d="M52.276 15.939H53.871V23.431H52.276V15.939ZM53.032 12.669C53.593 12.672 54.047 13.115 54.047 13.66C54.0464 13.8594 53.9859 14.0539 53.8734 14.2185C53.7609 14.3831 53.6015 14.5101 53.416 14.583C53.033 14.738 52.591 14.653 52.298 14.367C52.1554 14.2293 52.0581 14.0514 52.0191 13.857C51.9802 13.6627 52.0014 13.461 52.08 13.279C52.24 12.907 52.617 12.666 53.032 12.669ZM61.002 11.256H59.277C59.277 7.256 57.364 5.762 56.607 5.331C55.851 5.766 53.942 7.261 53.942 11.256H52.217C52.217 5.165 56.144 3.666 56.311 3.606L56.607 3.5L56.908 3.606C57.075 3.666 61.002 5.149 61.002 11.256ZM80.23 11.256H78.5C78.5 7.256 76.587 5.762 75.835 5.331C75.079 5.766 73.17 7.261 73.17 11.256H71.44C71.44 5.165 75.367 3.666 75.539 3.606L75.835 3.5L76.135 3.606C76.315 3.666 80.23 5.149 80.23 11.256ZM90 23.42H88.275C88.275 19.424 86.362 17.93 85.605 17.495C84.85 17.929 82.941 19.424 82.941 23.42H81.215C81.215 17.328 85.142 15.834 85.309 15.773L85.606 15.667L85.906 15.773C86.073 15.834 90 17.316 90 23.42ZM65.764 15.79C65.931 15.85 69.858 17.328 69.845 23.436H68.115C68.115 19.44 66.202 17.946 65.451 17.511C64.695 17.946 62.786 19.441 62.786 23.436H61.06C61.031 21.974 61.316 20.522 61.896 19.172C61.4967 18.4926 60.9357 17.9224 60.263 17.512C59.506 17.95 57.597 19.444 57.597 23.436H55.872C55.872 17.328 59.799 15.85 59.966 15.789L60.266 15.684L60.563 15.789C61.4698 16.1773 62.2613 16.7927 62.861 17.576C63.4603 16.7911 64.2532 16.1754 65.162 15.789L65.463 15.684L65.763 15.789L65.764 15.79ZM75.781 22.993C74.2729 22.9726 72.7682 23.1433 71.303 23.501L75.985 17.581H71.612V15.907H79.549L79.239 16.252L75.292 21.3H75.505C76.939 21.2764 78.3711 21.4126 79.775 21.706C79.713 22.236 79.682 22.769 79.682 23.302V23.399C78.3991 23.13 77.0918 22.994 75.781 22.993ZM87.176 9.457C86.0627 8.19365 84.7711 7.09946 83.342 6.209V11.256H81.746V3.586L82.97 4.121C84.9075 5.15988 86.6592 6.5129 88.154 8.125V3.772H89.749V12.828C89.0009 11.6251 88.1393 10.4966 87.176 9.458V9.457ZM62.77 9.331C63.725 9.62 64.723 9.751 65.723 9.721C66.231 9.711 66.737 9.669 67.239 9.595L61.889 4.771C62.9149 4.10874 64.0798 3.69194 65.293 3.553H65.477L65.84 3.52H66.517C67.512 3.53 68.504 3.644 69.474 3.861L69.265 4.674L69.057 5.486C68.0387 5.2597 66.9953 5.16692 65.953 5.21C65.6351 5.2299 65.3186 5.26762 65.005 5.323L70.343 10.131C69.4408 10.7849 68.3844 11.1936 67.277 11.317C66.778 11.381 66.277 11.419 65.773 11.431H65.514C64.3794 11.4326 63.2518 11.2543 62.173 10.903L62.77 9.331Z" fill="#718096"/>
</g>
</g>
<defs>
<clipPath id="clip0_1_3139">
<rect width="90" height="28" fill="white" transform="translate(0 0.5)"/>
</clipPath>
</defs>
</svg>
